<svg width="48" height="48" viewBox="0 0 48 48" fill="none" xmlns="http://www.w3.org/2000/svg">
<rect width="48" height="48" rx="24" fill="#1E885B"/>
<path d="M15 15H17L17.4 17M17.4 17H33L29 25H19M17.4 17L19 25M19 25L16.707 27.293C16.077 27.923 16.523 29 17.414 29H29M29 29C28.4696 29 27.9609 29.2107 27.5858 29.5858C27.2107 29.9609 27 30.4696 27 31C27 31.5304 27.2107 32.0391 27.5858 32.4142C27.9609 32.7893 28.4696 33 29 33C29.5304 33 30.0391 32.7893 30.4142 32.4142C30.7893 32.0391 31 31.5304 31 31C31 30.4696 30.7893 29.9609 30.4142 29.5858C30.0391 29.2107 29.5304 29 29 29ZM21 31C21 31.5304 20.7893 32.0391 20.4142 32.4142C20.0391 32.7893 19.5304 33 19 33C18.4696 33 17.9609 32.7893 17.5858 32.4142C17.2107 32.0391 17 31.5304 17 31C17 30.4696 17.2107 29.9609 17.5858 29.5858C17.9609 29.2107 18.4696 29 19 29C19.5304 29 20.0391 29.2107 20.4142 29.5858C20.7893 29.9609 21 30.4696 21 31Z" stroke="white" stroke-width="1.5" stroke-linecap="round" stroke-linejoin="round"/>
</svg>
