<svg width="48" height="48" viewBox="0 0 48 48" fill="none" xmlns="http://www.w3.org/2000/svg">
<rect x="0.5" y="0.5" width="47" height="47" rx="23.5" stroke="#1E885B"/>
<path d="M16.318 18.318C15.9001 18.7359 15.5686 19.2319 15.3425 19.7779C15.1163 20.3239 14.9999 20.909 14.9999 21.5C14.9999 22.091 15.1163 22.6761 15.3425 23.2221C15.5686 23.7681 15.9001 24.2641 16.318 24.682L24 32.364L31.682 24.682C32.5259 23.8381 33 22.6935 33 21.5C33 20.3065 32.5259 19.1619 31.682 18.318C30.8381 17.4741 29.6935 17 28.5 17C27.3065 17 26.1619 17.4741 25.318 18.318L24 19.636L22.682 18.318C22.2641 17.9001 21.768 17.5687 21.2221 17.3425C20.6761 17.1164 20.0909 17 19.5 17C18.909 17 18.3239 17.1164 17.7779 17.3425C17.2319 17.5687 16.7358 17.9001 16.318 18.318Z" stroke="white" stroke-width="1.5" stroke-linecap="round" stroke-linejoin="round"/>
</svg>
